<svg version="1.2" xmlns="http://www.w3.org/2000/svg" viewBox="0 0 1280 720" width="1280" height="720">
	<title>AKOD-svg</title>
	<style>
		.s0 { fill: #000000 } 
		.s1 { opacity: .8;fill: #000000 } 
		.s2 { opacity: .5;fill: #000000 } 
		.s3 { opacity: .3;fill: #000000 } 
		.s4 { opacity: .9;fill: #000000 } 
		.s5 { opacity: .4;fill: #000000 } 
		.s6 { opacity: .6;fill: #000000 } 
		.s7 { opacity: .2;fill: #000000 } 
		.s8 { opacity: .7;fill: #000000 } 
	</style>
	<g id="D">
		<path id="Path 0" fill-rule="evenodd" class="s0" d="m412 320c0.6 0 1.6 1.7 3.5 7.5l1.2-8 0.2 3.8c0 2 0.4 3.7 0.9 3.7 0.4 0 2.2-1.5 4-3.5 1.9-1.9 3.9-3.5 4.5-3.5 0.7 0.1-0.5 1.5-2.5 3.3-2.1 1.8-3.7 3.7-3.6 4.2 0.1 0.6 2 2.9 4.1 5 2.4 2.4 3.3 3 2.3 1.5-0.9-1.4-1.6-3.9-1.6-5.5-0.1-1.7 1-4.3 2.2-5.9 2.2-2.8 2.5-2.8 8.3-2.1 3.3 0.4 7 1.1 8.3 1.6 1.2 0.5 2.6 2.1 3.1 3.7 0.5 1.5 0.6 4 0.2 5.6-0.3 1.6-1.7 3.6-3.1 4.5-1.4 0.8-4.3 1.5-6.5 1.5-2.2-0.1-5.7-0.3-7.7-0.5-2.7-0.3-5-1.6-13.1-9.4l0.6 3c0.3 1.6 0.8 3.8 1.1 4.8 0.4 1.1 0.1 1.7-0.9 1.7-0.9 0-1.5-0.9-1.5-2.5 0-2.3-0.4-2.5-4.5-2.5-4 0-4.6 0.3-5 2.5-0.3 1.4-0.9 2.5-1.5 2.5-0.6 0 0.4-3.5 2.1-7.7 1.7-4.3 3.3-8.1 3.5-8.5 0.3-0.5 0.9-0.8 1.4-0.8zm15.4 6.8c-0.4 2.5 0 4.4 1 6 0.9 1.2 2.3 2.2 3.1 2.2 1.2 0 1.5-1.4 1.5-6.5 0-4.6-0.4-6.5-1.3-6.4-0.6 0-1.8 0.3-2.5 0.6-0.7 0.2-1.5 2.1-1.8 4.1zm-15.9 3.2c2.1 0 2.4-0.4 1.9-2.2-0.4-1.3-0.9-2.9-1.3-3.6-0.4-0.7-1.1 0.1-1.9 2.3-1.2 3.4-1.1 3.5 1.3 3.5zm28.1 2.8c-1.6 3.2-1.6 3.2 0.6 2.6 1.3-0.4 2.9-1.2 3.6-1.8 0.7-0.6 1.3-2.6 1.2-4.3 0-1.8-0.7-4-1.5-4.8-0.8-0.8-2-1.5-2.6-1.5-0.6 0-0.8 1.2-0.3 3.3 0.4 2.1 0.1 4.3-1 6.5zm-2.5-1.8c0.6-1.6 0.6-3.4 0-5-0.8-2.1-1-1.8-1 2.5 0.1 4.3 0.2 4.6 1 2.5z"/>
		<path id="Path 1" class="s1" d="m432.5 319c0.3 0 0.5 0.2 0.5 0.5 0 0.3-0.2 0.5-0.5 0.5-0.3 0-0.5-0.2-0.5-0.5 0-0.3 0.2-0.5 0.5-0.5zm-16.9 1.5c0.3 0.6 0.3 1.9 0.1 3-0.3 1.3-0.5 0.9-0.5-1 0-1.6 0.2-2.6 0.4-2zm2.1 1c0.2 1.1 0.2 2.7 0 3.5-0.3 0.8-0.5-0.1-0.5-2 0-1.9 0.2-2.6 0.5-1.5zm10.8-1.5c0.3 0 0.5 0.2 0.5 0.5 0 0.3-0.2 0.5-0.5 0.5-0.3 0-0.5-0.2-0.5-0.5 0-0.3 0.2-0.5 0.5-0.5zm19 7c0.3 0 0.5 0.2 0.5 0.5 0 0.3-0.2 0.5-0.5 0.5-0.3 0-0.5-0.2-0.5-0.5 0-0.3 0.2-0.5 0.5-0.5zm-30 2c0.3 0 0.5 0.2 0.5 0.5 0 0.3-0.2 0.5-0.5 0.5-0.3 0-0.5-0.2-0.5-0.5 0-0.3 0.2-0.5 0.5-0.5zm30 2c0.3 0 0.5 0.2 0.5 0.5 0 0.3-0.2 0.5-0.5 0.5-0.3 0-0.5-0.2-0.5-0.5 0-0.3 0.2-0.5 0.5-0.5zm-31.8 2.5c0.2 0.6 0.2 1.7 0 2.5-0.3 0.8-0.5 0.4-0.5-1 0-1.4 0.2-2.1 0.5-1.5zm2.8 0.5c0.3 0 0.5 0.2 0.5 0.5 0 0.3-0.2 0.5-0.5 0.5-0.3 0-0.5-0.2-0.5-0.5 0-0.3 0.2-0.5 0.5-0.5zm-14 1c0.3 0 0.5 0.2 0.5 0.5 0 0.3-0.2 0.5-0.5 0.5-0.3 0-0.5-0.2-0.5-0.5 0-0.3 0.2-0.5 0.5-0.5zm24.4 1c0.8 0 1.1 0.3 0.8 0.8-0.4 0.4-1 0.3-1.4-0.1-0.5-0.4-0.2-0.7 0.6-0.7zm11.6 1c0.3 0 0.5 0.2 0.5 0.5 0 0.3-0.2 0.5-0.5 0.5-0.3 0-0.5-0.2-0.5-0.5 0-0.3 0.2-0.5 0.5-0.5z"/>
		<path id="Path 2" class="s0" d="m410.5 320c0.3 0 0.5 0.2 0.5 0.5 0 0.3-0.2 0.5-0.5 0.5-0.3 0-0.5-0.2-0.5-0.5 0-0.3 0.2-0.5 0.5-0.5zm17 1c0.3 0 0.5 0.2 0.5 0.5 0 0.3-0.2 0.5-0.5 0.5-0.3 0-0.5-0.2-0.5-0.5 0-0.3 0.2-0.5 0.5-0.5zm15 0c0.3 0 0.5 0.2 0.5 0.5 0 0.3-0.2 0.5-0.5 0.5-0.3 0-0.5-0.2-0.5-0.5 0-0.3 0.2-0.5 0.5-0.5zm-28 3c0.3 0 0.5 0.2 0.5 0.5 0 0.3-0.6 0.8-1.3 1.2q-1.2 0.8-0.4-0.5c0.4-0.6 1-1.2 1.2-1.2zm11 0c0.3 0 0.5 0.2 0.5 0.5 0 0.3-0.2 0.5-0.5 0.5-0.3 0-0.5-0.2-0.5-0.5 0-0.3 0.2-0.5 0.5-0.5zm-4 1c0.3 0 0.5 0.2 0.5 0.5 0 0.3-0.6 0.8-1.3 1.2q-1.2 0.8-0.4-0.5c0.4-0.6 1-1.2 1.2-1.2zm-6 1c0.3 0 0.5 0.2 0.5 0.5 0 0.3-0.2 0.5-0.5 0.5-0.3 0-0.5-0.2-0.5-0.5 0-0.3 0.2-0.5 0.5-0.5zm2 2c0.3 0 0.5 0.2 0.5 0.5 0 0.3-0.2 0.5-0.5 0.5-0.3 0-0.5-0.2-0.5-0.5 0-0.3 0.2-0.5 0.5-0.5zm0 3c0.3 0 0.5 0.2 0.5 0.5 0 0.3-0.2 0.5-0.5 0.5-0.3 0-0.5-0.2-0.5-0.5 0-0.3 0.2-0.5 0.5-0.5zm-2 1c0.3 0 0.5 0.2 0.5 0.5 0 0.3-0.2 0.5-0.5 0.5-0.3 0-0.5-0.2-0.5-0.5 0-0.3 0.2-0.5 0.5-0.5zm-10 1c0.3 0 0.5 0.2 0.5 0.5 0 0.3-0.2 0.5-0.5 0.5-0.3 0-0.5-0.2-0.5-0.5 0-0.3 0.2-0.5 0.5-0.5zm38 3c0.3 0 0.5 0.2 0.5 0.5 0 0.3-0.2 0.5-0.5 0.5-0.3 0-0.5-0.2-0.5-0.5 0-0.3 0.2-0.5 0.5-0.5z"/>
		<path id="Path 3" class="s2" d="m416.5 319c0.3 0 0.5 0.2 0.5 0.5 0 0.3-0.2 0.5-0.5 0.5-0.3 0-0.5-0.2-0.5-0.5 0-0.3 0.2-0.5 0.5-0.5zm10.4 0c0.8 0 1.1 0.3 0.8 0.8-0.4 0.4-1 0.3-1.5-0.1-0.4-0.4-0.1-0.7 0.7-0.7zm12 1c0.8 0 1.1 0.3 0.8 0.7-0.4 0.5-1 0.4-1.5 0-0.4-0.4-0.1-0.7 0.7-0.7zm-14.4 7c0.3 0 0.5 0.2 0.5 0.5 0 0.3-0.2 0.5-0.5 0.5-0.3 0-0.5-0.2-0.5-0.5 0-0.3 0.2-0.5 0.5-0.5zm0 2c0.3 0 0.5 0.2 0.5 0.5 0 0.3-0.2 0.5-0.5 0.5-0.3 0-0.5-0.2-0.5-0.5 0-0.3 0.2-0.5 0.5-0.5zm23 3c0.3 0 0.5 0.2 0.5 0.5 0 0.3-0.2 0.5-0.5 0.5-0.3 0-0.5-0.2-0.5-0.5 0-0.3 0.2-0.5 0.5-0.5zm-3 4c0.3 0 0.5 0.2 0.5 0.5 0 0.3-0.2 0.5-0.5 0.5-0.3 0-0.5-0.2-0.5-0.5 0-0.3 0.2-0.5 0.5-0.5z"/>
		<path id="Path 4" class="s1" d="m436.5 320c0.3 0 0.5 0.2 0.5 0.5 0 0.3-0.2 0.5-0.5 0.5-0.3 0-0.5-0.2-0.5-0.5 0-0.3 0.2-0.5 0.5-0.5zm-23 1c0.3 0 0.5 0.2 0.5 0.5 0 0.3-0.2 0.5-0.5 0.5-0.3 0-0.5-0.2-0.5-0.5 0-0.3 0.2-0.5 0.5-0.5zm-4 1c0.3 0 0.5 0.2 0.5 0.5 0 0.3-0.2 0.5-0.5 0.5-0.3 0-0.5-0.2-0.5-0.5 0-0.3 0.2-0.5 0.5-0.5zm6 3c0.3 0 0.5 0.2 0.5 0.5 0 0.3-0.2 0.5-0.5 0.5-0.3 0-0.5-0.2-0.5-0.5 0-0.3 0.2-0.5 0.5-0.5zm4.2 0c0.1 0 0 0.4-0.2 1-0.3 0.6-1.1 1-1.8 1q-1.2 0 0.3-1c0.8-0.5 1.6-1 1.7-1zm-0.2 2.5l3 2.5c1.6 1.4 3.2 2.6 3.5 2.8 0.3 0.1 0.3 0.4 0 0.7-0.3 0.3-1.9-1-3.5-2.8zm-2 2.5c0.3 0 0.5 0.3 0.5 0.5 0 0.3-0.2 0.5-0.5 0.5-0.3 0-0.5-0.2-0.5-0.5 0-0.2 0.2-0.5 0.5-0.5zm10 5c0.3 0 0.5 0.3 0.5 0.5 0 0.3-0.2 0.5-0.5 0.5-0.3 0-0.5-0.2-0.5-0.5 0-0.2 0.2-0.5 0.5-0.5zm12 2c0.3 0 0.5 0.3 0.5 0.5 0 0.3-0.2 0.5-0.5 0.5-0.3 0-0.5-0.2-0.5-0.5 0-0.2 0.2-0.5 0.5-0.5z"/>
		<path id="Path 5" class="s3" d="m429.5 319c0.3 0 0.5 0.2 0.5 0.5 0 0.3-0.2 0.5-0.5 0.5-0.3 0-0.5-0.2-0.5-0.5 0-0.3 0.2-0.5 0.5-0.5zm17 4c0.3 0 0.5 0.2 0.5 0.5 0 0.3-0.2 0.5-0.5 0.5-0.3 0-0.5-0.2-0.5-0.5 0-0.3 0.2-0.5 0.5-0.5zm-24 2c0.3 0 0.5 0.2 0.5 0.5 0 0.3-0.2 0.5-0.5 0.5-0.3 0-0.5-0.2-0.5-0.5 0-0.3 0.2-0.5 0.5-0.5zm2 0c0.3 0 0.5 0.2 0.5 0.5 0 0.3-0.2 0.5-0.5 0.5-0.3 0-0.5-0.2-0.5-0.5 0-0.3 0.2-0.5 0.5-0.5zm-4 2c0.3 0 0.5 0.2 0.5 0.5 0 0.3-0.2 0.5-0.5 0.5-0.3 0-0.5-0.2-0.5-0.5 0-0.3 0.2-0.5 0.5-0.5zm4 4c0.3 0 0.5 0.2 0.5 0.5 0 0.3-0.2 0.5-0.5 0.5-0.3 0-0.5-0.2-0.5-0.5 0-0.3 0.2-0.5 0.5-0.5zm23 2c0.3 0 0.5 0.2 0.5 0.5 0 0.3-0.2 0.5-0.5 0.5-0.3 0-0.5-0.2-0.5-0.5 0-0.3 0.2-0.5 0.5-0.5zm-15 4c0.3 0 0.5 0.2 0.5 0.5 0 0.3-0.2 0.5-0.5 0.5-0.3 0-0.5-0.2-0.5-0.5 0-0.3 0.2-0.5 0.5-0.5z"/>
		<path id="Path 6" class="s4" d="m426.5 322c0.3 0 0.5 0.2 0.5 0.5 0 0.3-0.2 0.5-0.5 0.5-0.3 0-0.5-0.2-0.5-0.5 0-0.3 0.2-0.5 0.5-0.5zm20 2c0.3 0 0.5 0.2 0.5 0.5 0 0.3-0.2 0.5-0.5 0.5-0.3 0-0.5-0.2-0.5-0.5 0-0.3 0.2-0.5 0.5-0.5zm-38 1c0.3 0 0.5 0.2 0.5 0.5 0 0.3-0.2 0.5-0.5 0.5-0.3 0-0.5-0.2-0.5-0.5 0-0.3 0.2-0.5 0.5-0.5zm-2 5c0.3 0 0.5 0.2 0.5 0.5 0 0.3-0.2 0.5-0.5 0.5-0.3 0-0.5-0.2-0.5-0.5 0-0.3 0.2-0.5 0.5-0.5zm41 0c0.3 0 0.5 0.2 0.5 0.5 0 0.3-0.2 0.5-0.5 0.5-0.3 0-0.5-0.2-0.5-0.5 0-0.3 0.2-0.5 0.5-0.5zm-40 2c0.3 0 0.5 0.2 0.5 0.5 0 0.3-0.2 0.5-0.5 0.5-0.3 0-0.5-0.2-0.5-0.5 0-0.3 0.2-0.5 0.5-0.5zm19 2c0.3 0 0.5 0.2 0.5 0.5 0 0.3-0.2 0.5-0.5 0.5-0.3 0-0.5-0.2-0.5-0.5 0-0.3 0.2-0.5 0.5-0.5zm19 1c0.3 0 0.5 0.2 0.5 0.5 0 0.3-0.2 0.5-0.5 0.5-0.3 0-0.5-0.2-0.5-0.5 0-0.3 0.2-0.5 0.5-0.5z"/>
		<path id="Path 7" class="s2" d="m411.9 319c0.8 0 1.1 0.3 0.8 0.8-0.4 0.4-1 0.3-1.4-0.1-0.5-0.4-0.2-0.7 0.6-0.7zm18.6 0c0.3 0 0.5 0.2 0.5 0.5 0 0.3-0.2 0.5-0.5 0.5-0.3 0-0.5-0.2-0.5-0.5 0-0.3 0.2-0.5 0.5-0.5zm-5 4c0.3 0 0.5 0.2 0.5 0.5 0 0.3-0.2 0.5-0.5 0.5-0.3 0-0.5-0.2-0.5-0.5 0-0.3 0.2-0.5 0.5-0.5zm-14 9.3c2.2-0.1 3.2 0.1 2.3 0.4-0.9 0.2-2.7 0.2-4 0-1.3-0.2-0.5-0.4 1.7-0.4z"/>
		<path id="Path 8" class="s5" d="m425.5 322c0.3 0 0.5 0.2 0.5 0.5 0 0.3-0.2 0.5-0.5 0.5-0.3 0-0.5-0.2-0.5-0.5 0-0.3 0.2-0.5 0.5-0.5zm-21 12c0.3 0 0.5 0.2 0.5 0.5 0 0.3-0.2 0.5-0.5 0.5-0.3 0-0.5-0.2-0.5-0.5 0-0.3 0.2-0.5 0.5-0.5zm2 2c0.3 0 0.5 0.2 0.5 0.5 0 0.3-0.2 0.5-0.5 0.5-0.3 0-0.5-0.2-0.5-0.5 0-0.3 0.2-0.5 0.5-0.5z"/>
		<path id="Path 9" class="s6" d="m433.5 319c0.3 0 0.5 0.2 0.5 0.5 0 0.3-0.2 0.5-0.5 0.5-0.3 0-0.5-0.2-0.5-0.5 0-0.3 0.2-0.5 0.5-0.5zm-9.9 2c0.2 0 0.4 0.1 0.4 0.3 0.1 0.1-1 1.1-4.5 4.2l1.9-2.3c1-1.2 2.1-2.2 2.2-2.2zm2.9 0c0.3 0 0.5 0.2 0.5 0.5 0 0.3-0.2 0.5-0.5 0.5-0.3 0-0.5-0.2-0.5-0.5 0-0.3 0.2-0.5 0.5-0.5zm-2 7c0.3 0 0.5 0.2 0.5 0.5 0 0.3-0.2 0.5-0.5 0.5-0.3 0-0.5-0.2-0.5-0.5 0-0.3 0.2-0.5 0.5-0.5zm-19 4c0.3 0 0.5 0.2 0.5 0.5 0 0.3-0.2 0.5-0.5 0.5-0.3 0-0.5-0.2-0.5-0.5 0-0.3 0.2-0.5 0.5-0.5z"/>
		<path id="Path 10" class="s7" d="m428.5 319c0.3 0 0.5 0.2 0.5 0.5 0 0.3-0.2 0.5-0.5 0.5-0.3 0-0.5-0.2-0.5-0.5 0-0.3 0.2-0.5 0.5-0.5zm7 0c0.3 0 0.5 0.2 0.5 0.5 0 0.3-0.2 0.5-0.5 0.5-0.3 0-0.5-0.2-0.5-0.5 0-0.3 0.2-0.5 0.5-0.5zm6 1c0.3 0 0.5 0.2 0.5 0.5 0 0.3-0.2 0.5-0.5 0.5-0.3 0-0.5-0.2-0.5-0.5 0-0.3 0.2-0.5 0.5-0.5zm3 1c0.3 0 0.5 0.2 0.5 0.5 0 0.3-0.2 0.5-0.5 0.5-0.3 0-0.5-0.2-0.5-0.5 0-0.3 0.2-0.5 0.5-0.5zm-30 1c0.3 0 0.5 0.2 0.5 0.5 0 0.3-0.2 0.5-0.5 0.5-0.3 0-0.5-0.2-0.5-0.5 0-0.3 0.2-0.5 0.5-0.5zm7 4c0.3 0 0.5 0.2 0.5 0.5 0 0.3-0.2 0.5-0.5 0.5-0.3 0-0.5-0.2-0.5-0.5 0-0.3 0.2-0.5 0.5-0.5zm-16 5c0.3 0 0.5 0.2 0.5 0.5 0 0.3-0.2 0.5-0.5 0.5-0.3 0-0.5-0.2-0.5-0.5 0-0.3 0.2-0.5 0.5-0.5zm26 6c0.3 0 0.5 0.2 0.5 0.5 0 0.3-0.2 0.5-0.5 0.5-0.3 0-0.5-0.2-0.5-0.5 0-0.3 0.2-0.5 0.5-0.5z"/>
		<path id="Path 11" fill-rule="evenodd" class="s5" d="m410.5 319c0.3 0 0.5 0.2 0.5 0.5 0 0.3-0.2 0.5-0.5 0.5-0.3 0-0.5-0.2-0.5-0.5 0-0.3 0.2-0.5 0.5-0.5zm5 0c0.3 0 0.5 0.2 0.5 0.5 0 0.3-0.2 0.5-0.5 0.5-0.3 0-0.5-0.2-0.5-0.5 0-0.3 0.2-0.5 0.5-0.5zm2 0c0.3 0 0.5 0.2 0.5 0.5 0 0.3-0.2 0.5-0.5 0.5-0.3 0-0.5-0.2-0.5-0.5 0-0.3 0.2-0.5 0.5-0.5zm-8 2c0.3 0 0.5 0.2 0.5 0.5 0 0.3-0.2 0.5-0.5 0.5-0.3 0-0.5-0.2-0.5-0.5 0-0.3 0.2-0.5 0.5-0.5zm15 2c0.3 0 0.5 0.2 0.5 0.5 0 0.3-0.6 0.8-1.3 1.2q-1.2 0.8-0.4-0.5c0.4-0.6 1-1.2 1.2-1.2zm-6.1 6c0.4 0 2.2 1.6 4 3.5 1.7 2 2.9 3.5 2.6 3.5-0.3 0-2.1-1.6-4-3.5-1.9-1.9-3.1-3.5-2.6-3.5zm0.1 4c0.3 0 0.5 0.2 0.5 0.5 0 0.3-0.2 0.5-0.5 0.5-0.3 0-0.5-0.2-0.5-0.5 0-0.3 0.2-0.5 0.5-0.5z"/>
		<path id="Path 12" class="s2" d="m437.5 320c0.3 0 0.5 0.2 0.5 0.5 0 0.3-0.2 0.5-0.5 0.5-0.3 0-0.5-0.2-0.5-0.5 0-0.3 0.2-0.5 0.5-0.5zm-23 3c0.3 0 0.5 0.2 0.5 0.5 0 0.3-0.2 0.5-0.5 0.5-0.3 0-0.5-0.2-0.5-0.5 0-0.3 0.2-0.5 0.5-0.5zm-6 1c0.3 0 0.5 0.2 0.5 0.5 0 0.3-0.2 0.5-0.5 0.5-0.3 0-0.5-0.2-0.5-0.5 0-0.3 0.2-0.5 0.5-0.5zm38 10c0.3 0 0.5 0.2 0.5 0.5 0 0.3-0.2 0.5-0.5 0.5-0.3 0-0.5-0.2-0.5-0.5 0-0.3 0.2-0.5 0.5-0.5zm-27 2c0.3 0 0.5 0.2 0.5 0.5 0 0.3-0.2 0.5-0.5 0.5-0.3 0-0.5-0.2-0.5-0.5 0-0.3 0.2-0.5 0.5-0.5zm22 1c0.3 0 0.5 0.2 0.5 0.5 0 0.3-0.2 0.5-0.5 0.5-0.3 0-0.5-0.2-0.5-0.5 0-0.3 0.2-0.5 0.5-0.5z"/>
		<path id="Path 13" class="s2" d="m434.5 319c0.3 0 0.5 0.2 0.5 0.5 0 0.3-0.2 0.5-0.5 0.5-0.3 0-0.5-0.2-0.5-0.5 0-0.3 0.2-0.5 0.5-0.5zm-21 1c0.3 0 0.5 0.2 0.5 0.5 0 0.3-0.2 0.5-0.5 0.5-0.3 0-0.5-0.2-0.5-0.5 0-0.3 0.2-0.5 0.5-0.5zm11 0c0.3 0 0.5 0.2 0.5 0.5 0 0.3-0.2 0.5-0.5 0.5-0.3 0-0.5-0.2-0.5-0.5 0-0.3 0.2-0.5 0.5-0.5zm21 2c0.3 0 0.5 0.2 0.5 0.5 0 0.3-0.2 0.5-0.5 0.5-0.3 0-0.5-0.2-0.5-0.5 0-0.3 0.2-0.5 0.5-0.5zm2 3c0.3 0 0.5 0.2 0.5 0.5 0 0.3-0.2 0.5-0.5 0.5-0.3 0-0.5-0.2-0.5-0.5 0-0.3 0.2-0.5 0.5-0.5zm-23 1c0.3 0 0.5 0.2 0.5 0.5 0 0.3-0.2 0.5-0.5 0.5-0.3 0-0.5-0.2-0.5-0.5 0-0.3 0.2-0.5 0.5-0.5zm-18 3c0.3 0 0.5 0.2 0.5 0.5 0 0.3-0.2 0.5-0.5 0.5-0.3 0-0.5-0.2-0.5-0.5 0-0.3 0.2-0.5 0.5-0.5zm1 4c0.3 0 0.5 0.2 0.5 0.5 0 0.3-0.2 0.5-0.5 0.5-0.3 0-0.5-0.2-0.5-0.5 0-0.3 0.2-0.5 0.5-0.5zm35 4c0.3 0 0.5 0.2 0.5 0.5 0 0.3-0.2 0.5-0.5 0.5-0.3 0-0.5-0.2-0.5-0.5 0-0.3 0.2-0.5 0.5-0.5z"/>
		<path id="Path 14" class="s5" d="m440.5 320c0.3 0 0.5 0.2 0.5 0.5 0 0.3-0.2 0.5-0.5 0.5-0.3 0-0.5-0.2-0.5-0.5 0-0.3 0.2-0.5 0.5-0.5zm-15 16c0.3 0 0.5 0.2 0.5 0.5 0 0.3-0.2 0.5-0.5 0.5-0.3 0-0.5-0.2-0.5-0.5 0-0.3 0.2-0.5 0.5-0.5z"/>
		<path id="Path 15" class="s3" d="m425.5 319c0.3 0 0.5 0.2 0.5 0.5 0 0.3-0.2 0.5-0.5 0.5-0.3 0-0.5-0.2-0.5-0.5 0-0.3 0.2-0.5 0.5-0.5zm-18 7c0.3 0 0.5 0.2 0.5 0.5 0 0.3-0.2 0.5-0.5 0.5-0.3 0-0.5-0.2-0.5-0.5 0-0.3 0.2-0.5 0.5-0.5zm17 4c0.3 0 0.5 0.2 0.5 0.5 0 0.3-0.2 0.5-0.5 0.5-0.3 0-0.5-0.2-0.5-0.5 0-0.3 0.2-0.5 0.5-0.5z"/>
		<path id="Path 16" class="s1" d="m433.5 337c0.3 0 0.5 0.2 0.5 0.5 0 0.3-0.2 0.5-0.5 0.5-0.3 0-0.5-0.2-0.5-0.5 0-0.3 0.2-0.5 0.5-0.5z"/>
		<path id="Path 17" class="s8" d="m427.5 320c0.3 0 0.5 0.2 0.5 0.5 0 0.3-0.2 0.5-0.5 0.5-0.3 0-0.5-0.2-0.5-0.5 0-0.3 0.2-0.5 0.5-0.5zm-20 7c0.3 0 0.5 0.2 0.5 0.5 0 0.3-0.2 0.5-0.5 0.5-0.3 0-0.5-0.2-0.5-0.5 0-0.3 0.2-0.5 0.5-0.5zm-1 8c0.3 0 0.5 0.2 0.5 0.5 0 0.3-0.2 0.5-0.5 0.5-0.3 0-0.5-0.2-0.5-0.5 0-0.3 0.2-0.5 0.5-0.5z"/>
		<path id="Path 18" class="s8" d="m431.5 319c0.3 0 0.5 0.2 0.5 0.5 0 0.3-0.2 0.5-0.5 0.5-0.3 0-0.5-0.2-0.5-0.5 0-0.3 0.2-0.5 0.5-0.5zm12 2c0.3 0 0.5 0.2 0.5 0.5 0 0.3-0.2 0.5-0.5 0.5-0.3 0-0.5-0.2-0.5-0.5 0-0.3 0.2-0.5 0.5-0.5zm4 5c0.3 0 0.5 0.2 0.5 0.5 0 0.3-0.2 0.5-0.5 0.5-0.3 0-0.5-0.2-0.5-0.5 0-0.3 0.2-0.5 0.5-0.5z"/>
		<path id="Path 19" class="s0" d="m443.5 322c0.8 0 2.1 1.5 2.9 3.3 0.8 1.7 1.2 4.3 0.9 5.7-0.3 1.4-1.1 3.1-1.7 3.8-0.6 0.7-1.4 1.3-1.9 1.2-0.4 0 0-1 0.8-2.3 0.8-1.2 1.5-3.4 1.5-5 0-1.5-0.9-3.6-2-4.7-1.6-1.6-1.7-2-0.5-2z"/>
		<path id="Path 20" class="s1" d="m433.7 324.5c0.2 1.6 0.2 4.8 0 7-0.2 2.2-0.4 0.9-0.4-3 0-3.9 0.2-5.6 0.4-4zm6.8-2.5c0.3 0 0.5 0.2 0.5 0.5 0 0.3-0.2 0.5-0.5 0.5-0.3 0-0.5-0.2-0.5-0.5 0-0.3 0.2-0.5 0.5-0.5zm-4.8 3c0.2 1.4 0.2 4.1 0 6-0.2 1.9-0.4 0.8-0.4-2.5 0-3.3 0.2-4.9 0.4-3.5zm1.8-1c0.3 0 0.5 0.2 0.5 0.5 0 0.3-0.2 0.5-0.5 0.5-0.3 0-0.5-0.2-0.5-0.5 0-0.3 0.2-0.5 0.5-0.5zm8 7c0.3 0 0.5 0.2 0.5 0.5 0 0.3-0.2 0.5-0.5 0.5-0.3 0-0.5-0.2-0.5-0.5 0-0.3 0.2-0.5 0.5-0.5zm-14 4c0.3 0 0.5 0.2 0.5 0.5 0 0.3-0.2 0.5-0.5 0.5-0.3 0-0.5-0.2-0.5-0.5 0-0.3 0.2-0.5 0.5-0.5zm11 0c0.3 0 0.5 0.2 0.5 0.5 0 0.3-0.2 0.5-0.5 0.5-0.3 0-0.5-0.2-0.5-0.5 0-0.3 0.2-0.5 0.5-0.5z"/>
		<path id="Path 21" class="s0" d="m429.5 321c0.3 0 0.5 0.2 0.5 0.5 0 0.3-0.2 0.5-0.5 0.5-0.3 0-0.5-0.2-0.5-0.5 0-0.3 0.2-0.5 0.5-0.5zm6 1c0.3 0 0.5 0.2 0.5 0.5 0 0.3-0.2 0.5-0.5 0.5-0.3 0-0.5-0.2-0.5-0.5 0-0.3 0.2-0.5 0.5-0.5zm3 0c0.3 0 0.5 0.2 0.5 0.5 0 0.3-0.2 0.5-0.5 0.5-0.3 0-0.5-0.2-0.5-0.5 0-0.3 0.2-0.5 0.5-0.5zm1 2c0.3 0 0.5 0.2 0.5 0.5 0 0.3-0.2 0.5-0.5 0.5-0.3 0-0.5-0.2-0.5-0.5 0-0.3 0.2-0.5 0.5-0.5zm-30 2c0.3 0 0.5 0.2 0.5 0.5 0 0.3-0.2 0.5-0.5 0.5-0.3 0-0.5-0.2-0.5-0.5 0-0.3 0.2-0.5 0.5-0.5zm28 6c0.3 0 0.5 0.2 0.5 0.5 0 0.3-0.2 0.5-0.5 0.5-0.3 0-0.5-0.2-0.5-0.5 0-0.3 0.2-0.5 0.5-0.5zm-2 2c0.3 0 0.5 0.2 0.5 0.5 0 0.3-0.2 0.5-0.5 0.5-0.3 0-0.5-0.2-0.5-0.5 0-0.3 0.2-0.5 0.5-0.5z"/>
		<path id="Path 22" class="s2" d="m430.5 321c0.3 0 0.5 0.2 0.5 0.5 0 0.3-0.2 0.5-0.5 0.5-0.3 0-0.5-0.2-0.5-0.5 0-0.3 0.2-0.5 0.5-0.5zm9 1c0.3 0 0.5 0.2 0.5 0.5 0 0.3-0.2 0.5-0.5 0.5-0.3 0-0.5-0.2-0.5-0.5 0-0.3 0.2-0.5 0.5-0.5zm1 6c0.3 0 0.5 0.2 0.5 0.5 0 0.3-0.2 0.5-0.5 0.5-0.3 0-0.5-0.2-0.5-0.5 0-0.3 0.2-0.5 0.5-0.5zm5.2 0.3c0.4 0.4 0.4 1 0 1.4-0.4 0.5-0.8 0.1-0.8-0.7 0-0.8 0.4-1.2 0.8-0.8zm-8.2 2.8c0.3 0 0.5 0.2 0.5 0.5 0 0.3-0.2 0.5-0.5 0.5-0.3 0-0.5-0.2-0.5-0.5 0-0.3 0.2-0.5 0.5-0.5zm1 3c0.3 0 0.5 0.2 0.5 0.5 0 0.3-0.6 0.8-1.3 1.2q-1.2 0.8-0.4-0.5c0.4-0.6 1-1.2 1.2-1.2z"/>
		<path id="Path 23" class="s1" d="m433.5 321c0.3 0 0.5 0.2 0.5 0.5 0 0.3-0.2 0.5-0.5 0.5-0.3 0-0.5-0.2-0.5-0.5 0-0.3 0.2-0.5 0.5-0.5zm-5 1c0.3 0 0.5 0.2 0.5 0.5 0 0.3-0.2 0.5-0.5 0.5-0.3 0-0.5-0.2-0.5-0.5 0-0.3 0.2-0.5 0.5-0.5zm13 0c0.3 0 0.5 0.2 0.5 0.5 0 0.3-0.2 0.5-0.5 0.5-0.3 0-0.5-0.2-0.5-0.5 0-0.3 0.2-0.5 0.5-0.5zm4 4c0.3 0 0.5 0.2 0.5 0.5 0 0.3-0.2 0.5-0.5 0.5-0.3 0-0.5-0.2-0.5-0.5 0-0.3 0.2-0.5 0.5-0.5zm-37 4c0.3 0 0.5 0.2 0.5 0.5 0 0.3-0.2 0.5-0.5 0.5-0.3 0-0.5-0.2-0.5-0.5 0-0.3 0.2-0.5 0.5-0.5z"/>
		<path id="Path 24" class="s3" d="m432.5 321c0.3 0 0.5 0.2 0.5 0.5 0 0.3-0.2 0.5-0.5 0.5-0.3 0-0.5-0.2-0.5-0.5 0-0.3 0.2-0.5 0.5-0.5zm4 2c0.3 0 0.5 0.2 0.5 0.5 0 0.3-0.2 0.5-0.5 0.5-0.3 0-0.5-0.2-0.5-0.5 0-0.3 0.2-0.5 0.5-0.5zm-9 2c0.3 0 0.5 0.2 0.5 0.5 0 0.3-0.2 0.5-0.5 0.5-0.3 0-0.5-0.2-0.5-0.5 0-0.3 0.2-0.5 0.5-0.5zm17 0c0.3 0 0.5 0.2 0.5 0.5 0 0.3-0.2 0.5-0.5 0.5-0.3 0-0.5-0.2-0.5-0.5 0-0.3 0.2-0.5 0.5-0.5zm-7 1c0.3 0 0.5 0.2 0.5 0.5 0 0.3-0.2 0.5-0.5 0.5-0.3 0-0.5-0.2-0.5-0.5 0-0.3 0.2-0.5 0.5-0.5zm3 0c0.3 0 0.5 0.2 0.5 0.5 0 0.3-0.2 0.5-0.5 0.5-0.3 0-0.5-0.2-0.5-0.5 0-0.3 0.2-0.5 0.5-0.5zm-3 4c0.3 0 0.5 0.2 0.5 0.5 0 0.3-0.2 0.5-0.5 0.5-0.3 0-0.5-0.2-0.5-0.5 0-0.3 0.2-0.5 0.5-0.5zm3 0c0.3 0 0.5 0.2 0.5 0.5 0 0.3-0.2 0.5-0.5 0.5-0.3 0-0.5-0.2-0.5-0.5 0-0.3 0.2-0.5 0.5-0.5zm0 5c0.3 0 0.5 0.2 0.5 0.5 0 0.3-0.2 0.5-0.5 0.5-0.3 0-0.5-0.2-0.5-0.5 0-0.3 0.2-0.5 0.5-0.5z"/>
		<path id="Path 25" class="s4" d="m443.4 323c0.3 0 0.8 0.4 1.1 1 0.3 0.6 0.3 1 0 1-0.3 0-0.8-0.4-1.1-1-0.3-0.6-0.3-1 0-1zm-28.9 5c0.3 0 0.5 0.2 0.5 0.5 0 0.3-0.2 0.5-0.5 0.5-0.3 0-0.5-0.2-0.5-0.5 0-0.3 0.2-0.5 0.5-0.5zm12 0c0.3 0 0.5 0.2 0.5 0.5 0 0.3-0.2 0.5-0.5 0.5-0.3 0-0.5-0.2-0.5-0.5 0-0.3 0.2-0.5 0.5-0.5zm-18 1c0.3 0 0.5 0.2 0.5 0.5 0 0.3-0.2 0.5-0.5 0.5-0.3 0-0.5-0.2-0.5-0.5 0-0.3 0.2-0.5 0.5-0.5zm19 3c0.3 0 0.5 0.2 0.5 0.5 0 0.3-0.2 0.5-0.5 0.5-0.3 0-0.5-0.2-0.5-0.5 0-0.3 0.2-0.5 0.5-0.5z"/>
		<path id="Path 26" class="s2" d="m411.5 322c0.3 0 0.5 0.2 0.5 0.5 0 0.3-0.2 0.5-0.5 0.5-0.3 0-0.5-0.2-0.5-0.5 0-0.3 0.2-0.5 0.5-0.5zm0 8.2c1.6 0 2.4 0.2 1.7 0.5-0.8 0.2-2.1 0.2-3 0-1-0.3-0.3-0.5 1.3-0.5z"/>
		<path id="Path 27" class="s5" d="m428.5 333c0.3 0 0.5 0.2 0.5 0.5 0 0.3-0.2 0.5-0.5 0.5-0.3 0-0.5-0.2-0.5-0.5 0-0.3 0.2-0.5 0.5-0.5z"/>
		<path id="Path 28" class="s6" d="m409.5 327c0.3 0 0.5 0.2 0.5 0.5 0 0.3-0.2 0.5-0.5 0.5-0.3 0-0.5-0.2-0.5-0.5 0-0.3 0.2-0.5 0.5-0.5zm5 3c0.3 0 0.5 0.2 0.5 0.5 0 0.3-0.2 0.5-0.5 0.5-0.3 0-0.5-0.2-0.5-0.5 0-0.3 0.2-0.5 0.5-0.5z"/>
		<path id="Path 29" class="s7" d="m429.5 322c0.3 0 0.5 0.2 0.5 0.5 0 0.3-0.2 0.5-0.5 0.5-0.3 0-0.5-0.2-0.5-0.5 0-0.3 0.2-0.5 0.5-0.5zm-16 5c0.3 0 0.5 0.2 0.5 0.5 0 0.3-0.2 0.5-0.5 0.5-0.3 0-0.5-0.2-0.5-0.5 0-0.3 0.2-0.5 0.5-0.5z"/>
		<path id="Path 30" class="s5" d="m410.5 325c0.3 0 0.5 0.2 0.5 0.5 0 0.3-0.2 0.5-0.5 0.5-0.3 0-0.5-0.2-0.5-0.5 0-0.3 0.2-0.5 0.5-0.5z"/>
		<path id="Path 31" class="s2" d="m413.5 326c0.3 0 0.5 0.2 0.5 0.5 0 0.3-0.2 0.5-0.5 0.5-0.3 0-0.5-0.2-0.5-0.5 0-0.3 0.2-0.5 0.5-0.5zm23 7c0.3 0 0.5 0.2 0.5 0.5 0 0.3-0.2 0.5-0.5 0.5-0.3 0-0.5-0.2-0.5-0.5 0-0.3 0.2-0.5 0.5-0.5zm8 0c0.3 0 0.5 0.2 0.5 0.5 0 0.3-0.2 0.5-0.5 0.5-0.3 0-0.5-0.2-0.5-0.5 0-0.3 0.2-0.5 0.5-0.5z"/>
		<path id="Path 32" class="s2" d="m440.5 327c0.3 0 0.5 0.2 0.5 0.5 0 0.3-0.2 0.5-0.5 0.5-0.3 0-0.5-0.2-0.5-0.5 0-0.3 0.2-0.5 0.5-0.5zm-26 2c0.3 0 0.5 0.2 0.5 0.5 0 0.3-0.2 0.5-0.5 0.5-0.3 0-0.5-0.2-0.5-0.5 0-0.3 0.2-0.5 0.5-0.5z"/>
		<path id="Path 33" class="s5" d="m439.5 323c0.3 0 0.5 0.2 0.5 0.5 0 0.3-0.2 0.5-0.5 0.5-0.3 0-0.5-0.2-0.5-0.5 0-0.3 0.2-0.5 0.5-0.5zm-27 1c0.3 0 0.5 0.2 0.5 0.5 0 0.3-0.2 0.5-0.5 0.5-0.3 0-0.5-0.2-0.5-0.5 0-0.3 0.2-0.5 0.5-0.5zm28 5c0.3 0 0.5 0.2 0.5 0.5 0 0.3-0.2 0.5-0.5 0.5-0.3 0-0.5-0.2-0.5-0.5 0-0.3 0.2-0.5 0.5-0.5zm-13 2c0.3 0 0.5 0.2 0.5 0.5 0 0.3-0.2 0.5-0.5 0.5-0.3 0-0.5-0.2-0.5-0.5 0-0.3 0.2-0.5 0.5-0.5zm16 3c0.3 0 0.5 0.2 0.5 0.5 0 0.3-0.2 0.5-0.5 0.5-0.3 0-0.5-0.2-0.5-0.5 0-0.3 0.2-0.5 0.5-0.5z"/>
		<path id="Path 34" class="s3" d="m431.5 321c0.3 0 0.5 0.2 0.5 0.5 0 0.3-0.2 0.5-0.5 0.5-0.3 0-0.5-0.2-0.5-0.5 0-0.3 0.2-0.5 0.5-0.5zm11 2c0.3 0 0.5 0.2 0.5 0.5 0 0.3-0.2 0.5-0.5 0.5-0.3 0-0.5-0.2-0.5-0.5 0-0.3 0.2-0.5 0.5-0.5zm-5 2c0.3 0 0.5 0.2 0.5 0.5 0 0.3-0.2 0.5-0.5 0.5-0.3 0-0.5-0.2-0.5-0.5 0-0.3 0.2-0.5 0.5-0.5zm-28 3c0.3 0 0.5 0.2 0.5 0.5 0 0.3-0.2 0.5-0.5 0.5-0.3 0-0.5-0.2-0.5-0.5 0-0.3 0.2-0.5 0.5-0.5zm32 7c0.3 0 0.5 0.2 0.5 0.5 0 0.3-0.2 0.5-0.5 0.5-0.3 0-0.5-0.2-0.5-0.5 0-0.3 0.2-0.5 0.5-0.5z"/>
		<path id="Path 35" class="s8" d="m412.5 323c0.3 0 0.5 0.2 0.5 0.5 0 0.3-0.2 0.5-0.5 0.5-0.3 0-0.5-0.2-0.5-0.5 0-0.3 0.2-0.5 0.5-0.5zm-2 1c0.3 0 0.5 0.2 0.5 0.5 0 0.3-0.2 0.5-0.5 0.5-0.3 0-0.5-0.2-0.5-0.5 0-0.3 0.2-0.5 0.5-0.5zm35 3c0.3 0 0.5 0.2 0.5 0.5 0 0.3-0.2 0.5-0.5 0.5-0.3 0-0.5-0.2-0.5-0.5 0-0.3 0.2-0.5 0.5-0.5zm-6 5c0.3 0 0.5 0.2 0.5 0.5 0 0.3-0.2 0.5-0.5 0.5-0.3 0-0.5-0.2-0.5-0.5 0-0.3 0.2-0.5 0.5-0.5z"/>
		<path id="Path 36" class="s8" d="m427.5 324c0.3 0 0.5 0.2 0.5 0.5 0 0.3-0.2 0.5-0.5 0.5-0.3 0-0.5-0.2-0.5-0.5 0-0.3 0.2-0.5 0.5-0.5zm18 6c0.3 0 0.5 0.2 0.5 0.5 0 0.3-0.2 0.5-0.5 0.5-0.3 0-0.5-0.2-0.5-0.5 0-0.3 0.2-0.5 0.5-0.5zm-16 4c0.3 0 0.5 0.2 0.5 0.5 0 0.3-0.2 0.5-0.5 0.5-0.3 0-0.5-0.2-0.5-0.5 0-0.3 0.2-0.5 0.5-0.5zm3 1c0.3 0 0.5 0.2 0.5 0.5 0 0.3-0.2 0.5-0.5 0.5-0.3 0-0.5-0.2-0.5-0.5 0-0.3 0.2-0.5 0.5-0.5z"/>
	</g>
</svg>